<svg width="309" height="107" viewBox="0 0 309 107" fill="none" xmlns="http://www.w3.org/2000/svg">
<path opacity="0.78" d="M108.696 54C108.696 25.3739 84.6383 2.05755 54.8306 2.05755C25.0229 2.05755 0.965555 25.3739 0.965554 54C0.965554 82.6261 25.0229 105.942 54.8306 105.942C84.6383 105.942 108.696 82.6261 108.696 54ZM109.661 54C109.661 83.332 85.0538 107 54.8306 107C24.6074 107 0 83.332 0 54C8.23274e-07 24.668 24.6074 1 54.8306 1C85.0538 1 109.661 24.668 109.661 54Z" fill="#0D9488"/>
<path opacity="0.95" d="M54.6031 10.4554C56.3622 10.4554 57.7883 9.11851 57.7883 7.46944C57.7883 5.82036 56.3622 4.48352 54.6031 4.48352C52.8439 4.48352 51.4179 5.82036 51.4179 7.46944C51.4179 9.11851 52.8439 10.4554 54.6031 10.4554Z" fill="#0D9488"/>
<path opacity="0.95" d="M88.73 23.892C90.4891 23.892 91.9152 22.5552 91.9152 20.9061C91.9152 19.257 90.4891 17.9202 88.73 17.9202C86.9709 17.9202 85.5448 19.257 85.5448 20.9061C85.5448 22.5552 86.9709 23.892 88.73 23.892Z" fill="#0D9488"/>
<path opacity="0.95" d="M102.836 56.7371C104.595 56.7371 106.021 55.4002 106.021 53.7512C106.021 52.1021 104.595 50.7653 102.836 50.7653C101.077 50.7653 99.6506 52.1021 99.6506 53.7512C99.6506 55.4002 101.077 56.7371 102.836 56.7371Z" fill="#0D9488"/>
<path opacity="0.95" d="M88.73 90.0798C90.4891 90.0798 91.9152 88.6316 91.9152 86.8451C91.9152 85.0586 90.4891 83.6104 88.73 83.6104C86.9709 83.6104 85.5448 85.0586 85.5448 86.8451C85.5448 88.6316 86.9709 90.0798 88.73 90.0798Z" fill="#0D9488"/>
<path opacity="0.95" d="M54.6031 103.517C56.3622 103.517 57.7883 102.18 57.7883 100.531C57.7883 98.8815 56.3622 97.5447 54.6031 97.5447C52.8439 97.5447 51.4179 98.8815 51.4179 100.531C51.4179 102.18 52.8439 103.517 54.6031 103.517Z" fill="#0D9488"/>
<path opacity="0.95" d="M20.7037 90.0798C22.3371 90.0798 23.6613 88.6316 23.6613 86.8451C23.6613 85.0586 22.3371 83.6104 20.7037 83.6104C19.0702 83.6104 17.746 85.0586 17.746 86.8451C17.746 88.6316 19.0702 90.0798 20.7037 90.0798Z" fill="#0D9488"/>
<path opacity="0.95" d="M6.82538 56.7371C8.58451 56.7371 10.0106 55.4002 10.0106 53.7512C10.0106 52.1021 8.58451 50.7653 6.82538 50.7653C5.06626 50.7653 3.64021 52.1021 3.64021 53.7512C3.64021 55.4002 5.06626 56.7371 6.82538 56.7371Z" fill="#0D9488"/>
<path opacity="0.95" d="M20.7037 23.892C22.3371 23.892 23.6613 22.5552 23.6613 20.9061C23.6613 19.257 22.3371 17.9202 20.7037 17.9202C19.0702 17.9202 17.746 19.257 17.746 20.9061C17.746 22.5552 19.0702 23.892 20.7037 23.892Z" fill="#0D9488"/>
<path d="M54.8306 29.8639L76.4443 41.8076V65.6949L54.8306 77.6385L33.2169 65.6949V41.8076L54.8306 29.8639Z" fill="#014933"/>
<path opacity="0.15" d="M54.8306 38.8217L68.2538 46.2864V61.216L54.8306 68.6808L41.4073 61.216V46.2864L54.8306 38.8217Z" fill="white"/>
<path opacity="0.9" d="M54.6031 59.2254C57.6187 59.2254 60.0634 56.8859 60.0634 54C60.0634 51.1141 57.6187 48.7747 54.6031 48.7747C51.5874 48.7747 49.1428 51.1141 49.1428 54C49.1428 56.8859 51.5874 59.2254 54.6031 59.2254Z" fill="white"/>
<path d="M37.1298 20.5389C37.4215 20.313 37.8257 20.3879 38.0326 20.7063L45.8386 32.7291C46.0451 33.0477 45.976 33.4892 45.6844 33.715C45.3927 33.9407 44.9885 33.8652 44.7817 33.5466L36.9765 21.5247C36.7697 21.2062 36.8383 20.7648 37.1298 20.5389Z" fill="#059669"/>
<path d="M71.173 20.7064C71.3799 20.3878 71.784 20.313 72.0758 20.5389C72.3674 20.7648 72.4367 21.2062 72.2299 21.5247L64.424 33.5466C64.2172 33.8652 63.8131 33.9408 63.5213 33.7149C63.2296 33.489 63.1612 33.0476 63.368 32.729L71.173 20.7064Z" fill="#059669"/>
<path d="M37.7671 23.3944C39.0236 23.3944 40.0422 22.3918 40.0422 21.155C40.0422 19.9182 39.0236 18.9155 37.7671 18.9155C36.5106 18.9155 35.492 19.9182 35.492 21.155C35.492 22.3918 36.5106 23.3944 37.7671 23.3944Z" fill="#059669"/>
<path d="M71.894 23.3944C73.1505 23.3944 74.1692 22.3918 74.1692 21.155C74.1692 19.9182 73.1505 18.9155 71.894 18.9155C70.6375 18.9155 69.6189 19.9182 69.6189 21.155C69.6189 22.3918 70.6375 23.3944 71.894 23.3944Z" fill="#059669"/>
<path opacity="0.92" d="M98.2562 53.2535C98.5238 53.2535 98.7405 53.4762 98.7405 53.7512C98.7405 54.0262 98.5238 54.2488 98.2562 54.2488H54.6324C54.3647 54.2488 54.148 54.0262 54.148 53.7512C54.148 53.4762 54.3647 53.2535 54.6324 53.2535H98.2562Z" fill="#0D9488"/>
<path d="M155.999 42.108C155.999 44.8327 155.374 47.334 154.123 49.612C152.872 51.8453 150.952 53.6543 148.361 55.039C145.77 56.4237 142.554 57.116 138.713 57.116H131.611V74H120.154V26.966H138.713C142.465 26.966 145.636 27.6137 148.227 28.909C150.818 30.2043 152.761 31.991 154.056 34.269C155.351 36.547 155.999 39.16 155.999 42.108ZM137.842 48.004C140.031 48.004 141.661 47.4903 142.733 46.463C143.805 45.4357 144.341 43.984 144.341 42.108C144.341 40.232 143.805 38.7803 142.733 37.753C141.661 36.7257 140.031 36.212 137.842 36.212H131.611V48.004H137.842ZM197.206 54.704C197.206 55.776 197.139 56.8927 197.005 58.054H171.076C171.254 60.3767 171.991 62.1633 173.287 63.414C174.627 64.62 176.257 65.223 178.178 65.223C181.036 65.223 183.024 64.017 184.141 61.605H196.335C195.709 64.0617 194.57 66.2727 192.918 68.238C191.31 70.2033 189.277 71.7443 186.821 72.861C184.364 73.9777 181.617 74.536 178.58 74.536C174.917 74.536 171.656 73.7543 168.798 72.191C165.939 70.6277 163.706 68.3943 162.098 65.491C160.49 62.5877 159.686 59.193 159.686 55.307C159.686 51.421 160.467 48.0263 162.031 45.123C163.639 42.2197 165.872 39.9863 168.731 38.423C171.589 36.8597 174.872 36.078 178.58 36.078C182.198 36.078 185.414 36.8373 188.228 38.356C191.042 39.8747 193.23 42.041 194.794 44.855C196.402 47.669 197.206 50.952 197.206 54.704ZM185.481 51.689C185.481 49.7237 184.811 48.1603 183.471 46.999C182.131 45.8377 180.456 45.257 178.446 45.257C176.525 45.257 174.895 45.8153 173.555 46.932C172.259 48.0487 171.455 49.6343 171.143 51.689H185.481ZM218.459 74.536C215.198 74.536 212.295 73.9777 209.749 72.861C207.203 71.7443 205.193 70.2257 203.719 68.305C202.245 66.3397 201.418 64.151 201.24 61.739H212.563C212.697 63.0343 213.3 64.084 214.372 64.888C215.444 65.692 216.761 66.094 218.325 66.094C219.754 66.094 220.848 65.826 221.608 65.29C222.412 64.7093 222.814 63.9723 222.814 63.079C222.814 62.007 222.255 61.2253 221.139 60.734C220.022 60.198 218.213 59.6173 215.712 58.992C213.032 58.3667 210.798 57.719 209.012 57.049C207.225 56.3343 205.684 55.24 204.389 53.766C203.093 52.2473 202.446 50.215 202.446 47.669C202.446 45.525 203.026 43.582 204.188 41.84C205.394 40.0533 207.136 38.6463 209.414 37.619C211.736 36.5917 214.483 36.078 217.655 36.078C222.345 36.078 226.03 37.2393 228.71 39.562C231.434 41.8847 232.998 44.9667 233.4 48.808H222.814C222.635 47.5127 222.054 46.4853 221.072 45.726C220.134 44.9667 218.883 44.587 217.32 44.587C215.98 44.587 214.952 44.855 214.238 45.391C213.523 45.8823 213.166 46.5747 213.166 47.468C213.166 48.54 213.724 49.344 214.841 49.88C216.002 50.416 217.789 50.952 220.201 51.488C222.97 52.2027 225.226 52.9173 226.968 53.632C228.71 54.302 230.228 55.4187 231.524 56.982C232.864 58.5007 233.556 60.5553 233.601 63.146C233.601 65.3347 232.975 67.3 231.725 69.042C230.519 70.7393 228.754 72.0793 226.432 73.062C224.154 74.0447 221.496 74.536 218.459 74.536ZM261.447 64.285V74H255.618C251.464 74 248.226 72.995 245.903 70.985C243.58 68.9303 242.419 65.6027 242.419 61.002V46.128H237.863V36.614H242.419V27.502H253.876V36.614H261.38V46.128H253.876V61.136C253.876 62.2527 254.144 63.0567 254.68 63.548C255.216 64.0393 256.109 64.285 257.36 64.285H261.447ZM273.189 74.536C271.179 74.536 269.526 73.9553 268.231 72.794C266.98 71.588 266.355 70.114 266.355 68.372C266.355 66.5853 266.98 65.089 268.231 63.883C269.526 62.677 271.179 62.074 273.189 62.074C275.154 62.074 276.762 62.677 278.013 63.883C279.308 65.089 279.956 66.5853 279.956 68.372C279.956 70.114 279.308 71.588 278.013 72.794C276.762 73.9553 275.154 74.536 273.189 74.536Z" fill="#014933"/>
<path d="M292.5 32.728C290.49 32.728 288.837 32.1473 287.542 30.986C286.291 29.78 285.666 28.306 285.666 26.564C285.666 24.7773 286.291 23.3033 287.542 22.142C288.837 20.936 290.49 20.333 292.5 20.333C294.465 20.333 296.073 20.936 297.324 22.142C298.619 23.3033 299.267 24.7773 299.267 26.564C299.267 28.306 298.619 29.78 297.324 30.986C296.073 32.1473 294.465 32.728 292.5 32.728ZM298.195 36.614V74H286.738V36.614H298.195Z" fill="#059669"/>
<path d="M129.192 83.004V92H128.009V85.292L125.019 92H124.187L121.184 85.279V92H120.001V83.004H121.275L124.603 90.44L127.931 83.004H129.192ZM135.306 92.091C134.466 92.091 133.699 91.896 133.005 91.506C132.312 91.1073 131.762 90.557 131.354 89.855C130.956 89.1443 130.756 88.347 130.756 87.463C130.756 86.579 130.956 85.786 131.354 85.084C131.762 84.3733 132.312 83.823 133.005 83.433C133.699 83.0343 134.466 82.835 135.306 82.835C136.156 82.835 136.927 83.0343 137.62 83.433C138.314 83.823 138.86 84.369 139.258 85.071C139.657 85.773 139.856 86.5703 139.856 87.463C139.856 88.3557 139.657 89.153 139.258 89.855C138.86 90.557 138.314 91.1073 137.62 91.506C136.927 91.896 136.156 92.091 135.306 92.091ZM135.306 91.064C135.939 91.064 136.507 90.9167 137.009 90.622C137.521 90.3273 137.919 89.907 138.205 89.361C138.5 88.815 138.647 88.1823 138.647 87.463C138.647 86.735 138.5 86.1023 138.205 85.565C137.919 85.019 137.525 84.5987 137.022 84.304C136.52 84.0093 135.948 83.862 135.306 83.862C134.665 83.862 134.093 84.0093 133.59 84.304C133.088 84.5987 132.689 85.019 132.394 85.565C132.108 86.1023 131.965 86.735 131.965 87.463C131.965 88.1823 132.108 88.815 132.394 89.361C132.689 89.907 133.088 90.3273 133.59 90.622C134.102 90.9167 134.674 91.064 135.306 91.064ZM148.542 92H147.359L142.601 84.785V92H141.418V82.926H142.601L147.359 90.128V82.926H148.542V92ZM151.742 82.939V92H150.559V82.939H151.742ZM159.335 82.939V83.901H156.865V92H155.682V83.901H153.199V82.939H159.335ZM164.899 92.091C164.058 92.091 163.291 91.896 162.598 91.506C161.905 91.1073 161.354 90.557 160.947 89.855C160.548 89.1443 160.349 88.347 160.349 87.463C160.349 86.579 160.548 85.786 160.947 85.084C161.354 84.3733 161.905 83.823 162.598 83.433C163.291 83.0343 164.058 82.835 164.899 82.835C165.748 82.835 166.52 83.0343 167.213 83.433C167.906 83.823 168.452 84.369 168.851 85.071C169.25 85.773 169.449 86.5703 169.449 87.463C169.449 88.3557 169.25 89.153 168.851 89.855C168.452 90.557 167.906 91.1073 167.213 91.506C166.52 91.896 165.748 92.091 164.899 92.091ZM164.899 91.064C165.532 91.064 166.099 90.9167 166.602 90.622C167.113 90.3273 167.512 89.907 167.798 89.361C168.093 88.815 168.24 88.1823 168.24 87.463C168.24 86.735 168.093 86.1023 167.798 85.565C167.512 85.019 167.118 84.5987 166.615 84.304C166.112 84.0093 165.54 83.862 164.899 83.862C164.258 83.862 163.686 84.0093 163.183 84.304C162.68 84.5987 162.282 85.019 161.987 85.565C161.701 86.1023 161.558 86.735 161.558 87.463C161.558 88.1823 161.701 88.815 161.987 89.361C162.282 89.907 162.68 90.3273 163.183 90.622C163.694 90.9167 164.266 91.064 164.899 91.064ZM175.782 92L173.624 88.295H172.194V92H171.011V82.939H173.936C174.62 82.939 175.197 83.056 175.665 83.29C176.141 83.524 176.497 83.8403 176.731 84.239C176.965 84.6377 177.082 85.0927 177.082 85.604C177.082 86.228 176.9 86.7783 176.536 87.255C176.18 87.7317 175.643 88.048 174.924 88.204L177.199 92H175.782ZM172.194 87.346H173.936C174.577 87.346 175.058 87.19 175.379 86.878C175.699 86.5573 175.86 86.1327 175.86 85.604C175.86 85.0667 175.699 84.6507 175.379 84.356C175.067 84.0613 174.586 83.914 173.936 83.914H172.194V87.346ZM180.103 82.939V92H178.92V82.939H180.103ZM189.243 92H188.06L183.302 84.785V92H182.119V82.926H183.302L188.06 90.128V82.926H189.243V92ZM198.124 85.565C197.872 85.0363 197.508 84.629 197.032 84.343C196.555 84.0483 196 83.901 195.368 83.901C194.735 83.901 194.163 84.0483 193.652 84.343C193.149 84.629 192.75 85.045 192.456 85.591C192.17 86.1283 192.027 86.7523 192.027 87.463C192.027 88.1737 192.17 88.7977 192.456 89.335C192.75 89.8723 193.149 90.2883 193.652 90.583C194.163 90.869 194.735 91.012 195.368 91.012C196.252 91.012 196.98 90.7477 197.552 90.219C198.124 89.6903 198.457 88.9753 198.553 88.074H194.939V87.112H199.814V88.022C199.744 88.7673 199.51 89.452 199.112 90.076C198.713 90.6913 198.189 91.181 197.539 91.545C196.889 91.9003 196.165 92.078 195.368 92.078C194.527 92.078 193.76 91.883 193.067 91.493C192.373 91.0943 191.823 90.544 191.416 89.842C191.017 89.14 190.818 88.347 190.818 87.463C190.818 86.579 191.017 85.786 191.416 85.084C191.823 84.3733 192.373 83.823 193.067 83.433C193.76 83.0343 194.527 82.835 195.368 82.835C196.33 82.835 197.179 83.0733 197.916 83.55C198.661 84.0267 199.203 84.6983 199.541 85.565H198.124ZM211.799 92L210.616 90.804C210.174 91.2633 209.701 91.6057 209.199 91.831C208.696 92.0477 208.128 92.156 207.496 92.156C206.872 92.156 206.317 92.0433 205.832 91.818C205.355 91.5927 204.982 91.272 204.714 90.856C204.454 90.44 204.324 89.9547 204.324 89.4C204.324 88.7673 204.501 88.2127 204.857 87.736C205.221 87.2507 205.754 86.8693 206.456 86.592C206.178 86.2627 205.979 85.9593 205.858 85.682C205.736 85.4047 205.676 85.1013 205.676 84.772C205.676 84.3907 205.771 84.0483 205.962 83.745C206.161 83.433 206.443 83.1903 206.807 83.017C207.171 82.8437 207.591 82.757 208.068 82.757C208.536 82.757 208.943 82.848 209.29 83.03C209.636 83.212 209.896 83.4677 210.07 83.797C210.243 84.1177 210.321 84.4773 210.304 84.876H209.121C209.129 84.5207 209.03 84.2433 208.822 84.044C208.614 83.836 208.345 83.732 208.016 83.732C207.669 83.732 207.387 83.8317 207.171 84.031C206.963 84.2217 206.859 84.4687 206.859 84.772C206.859 85.032 206.928 85.2833 207.067 85.526C207.214 85.7687 207.457 86.0677 207.795 86.423L210.499 89.14L210.733 88.776L211.617 87.294H212.891L211.825 89.14C211.677 89.4 211.504 89.673 211.305 89.959L213.346 92H211.799ZM207.496 91.142C207.964 91.142 208.384 91.051 208.757 90.869C209.138 90.687 209.498 90.4053 209.836 90.024L207.171 87.346C206.061 87.7707 205.507 88.4423 205.507 89.361C205.507 89.8723 205.689 90.297 206.053 90.635C206.425 90.973 206.906 91.142 207.496 91.142ZM223.042 82.939V83.901H219.103V86.956H222.301V87.918H219.103V92H217.92V82.939H223.042ZM228.579 92.091C227.738 92.091 226.971 91.896 226.278 91.506C225.584 91.1073 225.034 90.557 224.627 89.855C224.228 89.1443 224.029 88.347 224.029 87.463C224.029 86.579 224.228 85.786 224.627 85.084C225.034 84.3733 225.584 83.823 226.278 83.433C226.971 83.0343 227.738 82.835 228.579 82.835C229.428 82.835 230.199 83.0343 230.893 83.433C231.586 83.823 232.132 84.369 232.531 85.071C232.929 85.773 233.129 86.5703 233.129 87.463C233.129 88.3557 232.929 89.153 232.531 89.855C232.132 90.557 231.586 91.1073 230.893 91.506C230.199 91.896 229.428 92.091 228.579 92.091ZM228.579 91.064C229.211 91.064 229.779 90.9167 230.282 90.622C230.793 90.3273 231.192 89.907 231.478 89.361C231.772 88.815 231.92 88.1823 231.92 87.463C231.92 86.735 231.772 86.1023 231.478 85.565C231.192 85.019 230.797 84.5987 230.295 84.304C229.792 84.0093 229.22 83.862 228.579 83.862C227.937 83.862 227.365 84.0093 226.863 84.304C226.36 84.5987 225.961 85.019 225.667 85.565C225.381 86.1023 225.238 86.735 225.238 87.463C225.238 88.1823 225.381 88.815 225.667 89.361C225.961 89.907 226.36 90.3273 226.863 90.622C227.374 90.9167 227.946 91.064 228.579 91.064ZM239.461 92L237.303 88.295H235.873V92H234.69V82.939H237.615C238.3 82.939 238.876 83.056 239.344 83.29C239.821 83.524 240.176 83.8403 240.41 84.239C240.644 84.6377 240.761 85.0927 240.761 85.604C240.761 86.228 240.579 86.7783 240.215 87.255C239.86 87.7317 239.323 88.048 238.603 88.204L240.878 92H239.461ZM235.873 87.346H237.615C238.257 87.346 238.738 87.19 239.058 86.878C239.379 86.5573 239.539 86.1327 239.539 85.604C239.539 85.0667 239.379 84.6507 239.058 84.356C238.746 84.0613 238.265 83.914 237.615 83.914H235.873V87.346ZM243.783 83.901V86.93H247.085V87.905H243.783V91.025H247.475V92H242.6V82.926H247.475V83.901H243.783ZM248.823 87.463C248.823 86.579 249.022 85.786 249.421 85.084C249.819 84.3733 250.361 83.8187 251.046 83.42C251.739 83.0213 252.506 82.822 253.347 82.822C254.335 82.822 255.197 83.0603 255.934 83.537C256.67 84.0137 257.208 84.6897 257.546 85.565H256.129C255.877 85.019 255.513 84.5987 255.037 84.304C254.569 84.0093 254.005 83.862 253.347 83.862C252.714 83.862 252.146 84.0093 251.644 84.304C251.141 84.5987 250.747 85.019 250.461 85.565C250.175 86.1023 250.032 86.735 250.032 87.463C250.032 88.1823 250.175 88.815 250.461 89.361C250.747 89.8983 251.141 90.3143 251.644 90.609C252.146 90.9037 252.714 91.051 253.347 91.051C254.005 91.051 254.569 90.908 255.037 90.622C255.513 90.3273 255.877 89.907 256.129 89.361H257.546C257.208 90.2277 256.67 90.8993 255.934 91.376C255.197 91.844 254.335 92.078 253.347 92.078C252.506 92.078 251.739 91.883 251.046 91.493C250.361 91.0943 249.819 90.544 249.421 89.842C249.022 89.14 248.823 88.347 248.823 87.463ZM264.663 89.985H260.711L259.983 92H258.735L262.011 82.991H263.376L266.639 92H265.391L264.663 89.985ZM264.325 89.023L262.687 84.447L261.049 89.023H264.325ZM270.939 92.091C270.341 92.091 269.804 91.987 269.327 91.779C268.859 91.5623 268.491 91.2677 268.222 90.895C267.954 90.5137 267.815 90.076 267.806 89.582H269.067C269.111 90.0067 269.284 90.3663 269.587 90.661C269.899 90.947 270.35 91.09 270.939 91.09C271.503 91.09 271.945 90.9513 272.265 90.674C272.595 90.388 272.759 90.024 272.759 89.582C272.759 89.2353 272.664 88.9537 272.473 88.737C272.283 88.5203 272.044 88.3557 271.758 88.243C271.472 88.1303 271.087 88.009 270.601 87.879C270.003 87.723 269.522 87.567 269.158 87.411C268.803 87.255 268.495 87.0123 268.235 86.683C267.984 86.345 267.858 85.8943 267.858 85.331C267.858 84.837 267.984 84.3993 268.235 84.018C268.487 83.6367 268.838 83.342 269.288 83.134C269.748 82.926 270.272 82.822 270.861 82.822C271.711 82.822 272.404 83.0343 272.941 83.459C273.487 83.8837 273.795 84.447 273.864 85.149H272.564C272.521 84.8023 272.339 84.499 272.018 84.239C271.698 83.9703 271.273 83.836 270.744 83.836C270.25 83.836 269.847 83.966 269.535 84.226C269.223 84.4773 269.067 84.8327 269.067 85.292C269.067 85.6213 269.158 85.89 269.34 86.098C269.531 86.306 269.761 86.4663 270.029 86.579C270.307 86.683 270.692 86.8043 271.186 86.943C271.784 87.1077 272.265 87.2723 272.629 87.437C272.993 87.593 273.305 87.84 273.565 88.178C273.825 88.5073 273.955 88.958 273.955 89.53C273.955 89.972 273.838 90.388 273.604 90.778C273.37 91.168 273.024 91.4843 272.564 91.727C272.105 91.9697 271.563 92.091 270.939 92.091ZM281.273 82.939V83.901H278.803V92H277.62V83.901H275.137V82.939H281.273ZM283.913 82.939V92H282.73V82.939H283.913ZM293.053 92H291.87L287.112 84.785V92H285.929V82.926H287.112L291.87 90.128V82.926H293.053V92ZM301.933 85.565C301.682 85.0363 301.318 84.629 300.841 84.343C300.365 84.0483 299.81 83.901 299.177 83.901C298.545 83.901 297.973 84.0483 297.461 84.343C296.959 84.629 296.56 85.045 296.265 85.591C295.979 86.1283 295.836 86.7523 295.836 87.463C295.836 88.1737 295.979 88.7977 296.265 89.335C296.56 89.8723 296.959 90.2883 297.461 90.583C297.973 90.869 298.545 91.012 299.177 91.012C300.061 91.012 300.789 90.7477 301.361 90.219C301.933 89.6903 302.267 88.9753 302.362 88.074H298.748V87.112H303.623V88.022C303.554 88.7673 303.32 89.452 302.921 90.076C302.523 90.6913 301.998 91.181 301.348 91.545C300.698 91.9003 299.975 92.078 299.177 92.078C298.337 92.078 297.57 91.883 296.876 91.493C296.183 91.0943 295.633 90.544 295.225 89.842C294.827 89.14 294.627 88.347 294.627 87.463C294.627 86.579 294.827 85.786 295.225 85.084C295.633 84.3733 296.183 83.823 296.876 83.433C297.57 83.0343 298.337 82.835 299.177 82.835C300.139 82.835 300.989 83.0733 301.725 83.55C302.471 84.0267 303.012 84.6983 303.35 85.565H301.933Z" fill="#007A55"/>
</svg>
