<svg width="235" height="227" viewBox="0 0 235 227" fill="none" xmlns="http://www.w3.org/2000/svg">
<path opacity="0.78" d="M232.773 113.5C232.773 52.197 181.254 2.26476 117.42 2.26476C53.5867 2.26476 2.06774 52.197 2.06774 113.5C2.06774 174.803 53.5867 224.735 117.42 224.735C181.254 224.735 232.773 174.803 232.773 113.5ZM234.84 113.5C234.84 176.315 182.143 227 117.42 227C52.6969 227 0 176.315 0 113.5C1.76305e-06 50.6852 52.6969 1.07312e-06 117.42 0C182.143 0 234.84 50.6852 234.84 113.5Z" fill="#0D9488"/>
<path opacity="0.95" d="M116.933 20.2488C120.7 20.2488 123.754 17.386 123.754 13.8544C123.754 10.3229 120.7 7.46008 116.933 7.46008C113.166 7.46008 110.112 10.3229 110.112 13.8544C110.112 17.386 113.166 20.2488 116.933 20.2488Z" fill="#0D9488"/>
<path opacity="0.95" d="M190.016 49.0235C193.783 49.0235 196.837 46.1606 196.837 42.6291C196.837 39.0976 193.783 36.2347 190.016 36.2347C186.249 36.2347 183.195 39.0976 183.195 42.6291C183.195 46.1606 186.249 49.0235 190.016 49.0235Z" fill="#0D9488"/>
<path opacity="0.95" d="M220.224 119.361C223.991 119.361 227.045 116.499 227.045 112.967C227.045 109.436 223.991 106.573 220.224 106.573C216.457 106.573 213.403 109.436 213.403 112.967C213.403 116.499 216.457 119.361 220.224 119.361Z" fill="#0D9488"/>
<path opacity="0.95" d="M190.016 190.765C193.783 190.765 196.837 187.664 196.837 183.838C196.837 180.012 193.783 176.911 190.016 176.911C186.249 176.911 183.195 180.012 183.195 183.838C183.195 187.664 186.249 190.765 190.016 190.765Z" fill="#0D9488"/>
<path opacity="0.95" d="M116.933 219.54C120.7 219.54 123.754 216.677 123.754 213.146C123.754 209.614 120.7 206.751 116.933 206.751C113.166 206.751 110.112 209.614 110.112 213.146C110.112 216.677 113.166 219.54 116.933 219.54Z" fill="#0D9488"/>
<path opacity="0.95" d="M44.3371 190.765C47.8352 190.765 50.671 187.664 50.671 183.838C50.671 180.012 47.8352 176.911 44.3371 176.911C40.839 176.911 38.0032 180.012 38.0032 183.838C38.0032 187.664 40.839 190.765 44.3371 190.765Z" fill="#0D9488"/>
<path opacity="0.95" d="M14.6166 119.361C18.3838 119.361 21.4377 116.499 21.4377 112.967C21.4377 109.436 18.3838 106.573 14.6166 106.573C10.8494 106.573 7.79553 109.436 7.79553 112.967C7.79553 116.499 10.8494 119.361 14.6166 119.361Z" fill="#0D9488"/>
<path opacity="0.95" d="M44.3371 49.0235C47.8352 49.0235 50.671 46.1606 50.671 42.6291C50.671 39.0976 47.8352 36.2347 44.3371 36.2347C40.839 36.2347 38.0032 39.0976 38.0032 42.6291C38.0032 46.1606 40.839 49.0235 44.3371 49.0235Z" fill="#0D9488"/>
<path d="M117.42 61.8123L163.706 87.3897V138.545L117.42 164.122L71.1343 138.545V87.3897L117.42 61.8123Z" fill="#014933"/>
<path opacity="0.15" d="M117.42 80.9954L146.166 96.9813V128.953L117.42 144.939L88.6742 128.953V96.9813L117.42 80.9954Z" fill="white"/>
<path opacity="0.9" d="M116.933 124.69C123.391 124.69 128.626 119.68 128.626 113.5C128.626 107.32 123.391 102.31 116.933 102.31C110.475 102.31 105.24 107.32 105.24 113.5C105.24 119.68 110.475 124.69 116.933 124.69Z" fill="white"/>
<path d="M79.5139 41.8426C80.1386 41.359 81.0041 41.5194 81.4471 42.2013L98.1637 67.9482C98.606 68.6304 98.4581 69.5758 97.8336 70.0594C97.2089 70.5428 96.3433 70.3811 95.9004 69.6989L79.1855 43.9539C78.7426 43.2717 78.8895 42.3265 79.5139 41.8426Z" fill="#059669"/>
<path d="M152.418 42.2014C152.861 41.5192 153.726 41.359 154.351 41.8427C154.976 42.3265 155.124 43.2717 154.681 43.9539L137.965 69.6987C137.522 70.381 136.656 70.5429 136.032 70.0592C135.407 69.5755 135.26 68.6303 135.703 67.948L152.418 42.2014Z" fill="#059669"/>
<path d="M80.8787 47.9578C83.5695 47.9578 85.7509 45.8106 85.7509 43.162C85.7509 40.5134 83.5695 38.3662 80.8787 38.3662C78.1878 38.3662 76.0065 40.5134 76.0065 43.162C76.0065 45.8106 78.1878 47.9578 80.8787 47.9578Z" fill="#059669"/>
<path d="M153.962 47.9578C156.653 47.9578 158.834 45.8106 158.834 43.162C158.834 40.5134 156.653 38.3662 153.962 38.3662C151.271 38.3662 149.09 40.5134 149.09 43.162C149.09 45.8106 151.271 47.9578 153.962 47.9578Z" fill="#059669"/>
<path opacity="0.92" d="M210.416 111.901C210.99 111.901 211.454 112.378 211.454 112.967C211.454 113.556 210.99 114.033 210.416 114.033H116.996C116.423 114.033 115.959 113.556 115.959 112.967C115.959 112.378 116.423 111.901 116.996 111.901H210.416Z" fill="#0D9488"/>
</svg>
